HIERARCHY
ROOT root
{
	OFFSET	0	13.1	24.9
	CHANNELS 6  Xposition Yposition Zposition Xrotation Yrotation Zrotation
	JOINT spine_1
	{
		OFFSET	0	9.99999	0
		CHANNELS 3  Xrotation Yrotation Zrotation
		JOINT spine_2
		{
			OFFSET	0	112	-10
			CHANNELS 3  Xrotation Yrotation Zrotation
			JOINT spine_3
			{
				OFFSET	0	206.5	19.3
				CHANNELS 3  Xrotation Yrotation Zrotation
				JOINT spine_4
				{
					OFFSET	0	110.4	14.6
					CHANNELS 3  Xrotation Yrotation Zrotation
					JOINT neck_1
					{
						OFFSET	0	71.8	-50.3
						CHANNELS 3  Xrotation Yrotation Zrotation
						JOINT neck_2
						{
							OFFSET	0	86.2	-25.8
							CHANNELS 3  Xrotation Yrotation Zrotation
							JOINT head_ee
							{
								OFFSET	0	179.8	-8.7
								CHANNELS 3  Xrotation Yrotation Zrotation
								End Site
								{
									OFFSET	1	0	0
								}
							}
						}
					}
					JOINT left_clavicle
					{
						OFFSET	-43.2	22.4	-70.8
						CHANNELS 3  Xrotation Yrotation Zrotation
						JOINT left_shoulder
						{
							OFFSET	-93.9	-5.79999	48.7
							CHANNELS 3  Xrotation Yrotation Zrotation
							JOINT left_elbow
							{
								OFFSET	-291.4	-30.8	15.2
								CHANNELS 3  Xrotation Yrotation Zrotation
								JOINT left_lowarm_twist
								{
									OFFSET	-110.7	-3.89999	13.6
									CHANNELS 3  Xrotation Yrotation Zrotation
									JOINT left_hand
									{
										OFFSET	-110.7	-3.89999	13.6
										CHANNELS 3  Xrotation Yrotation Zrotation
										JOINT left_ee
										{
											OFFSET	-80.8	-5.10001	12.1
											CHANNELS 3  Xrotation Yrotation Zrotation
											End Site
											{
												OFFSET	1	0	0
											}
										}
									}
								}
							}
						}
					}
					JOINT right_clavicle
					{
						OFFSET	43.2	22.4	-70.8
						CHANNELS 3  Xrotation Yrotation Zrotation
						JOINT right_shoulder
						{
							OFFSET	93.9	-5.79999	48.7
							CHANNELS 3  Xrotation Yrotation Zrotation
							JOINT right_elbow
							{
								OFFSET	291.4	-30.8	15.2
								CHANNELS 3  Xrotation Yrotation Zrotation
								JOINT right_lowarm_twist
								{
									OFFSET	110.7	-3.89999	13.6
									CHANNELS 3  Xrotation Yrotation Zrotation
									JOINT right_hand
									{
										OFFSET	110.7	-3.89999	13.6
										CHANNELS 3  Xrotation Yrotation Zrotation
										JOINT right_ee
										{
											OFFSET	80.8	-5.10001	12.1
											CHANNELS 3  Xrotation Yrotation Zrotation
											End Site
											{
												OFFSET	1	0	0
											}
										}
									}
								}
							}
						}
					}
				}
			}
		}
	}
	JOINT left_hip
	{
		OFFSET	-82.8	-127.5	0.300001
		CHANNELS 3  Xrotation Yrotation Zrotation
		JOINT left_knee
		{
			OFFSET	-28.2	-396.7	2.2
			CHANNELS 3  Xrotation Yrotation Zrotation
			JOINT left_ankle
			{
				OFFSET	-11.7	-411.3	35.4
				CHANNELS 3  Xrotation Yrotation Zrotation
				JOINT left_toes
				{
					OFFSET	0	-60	-88.6
					CHANNELS 3  Xrotation Yrotation Zrotation
					JOINT left_foot_ee
					{
						OFFSET	-22.5	-16.5	-42.2
						CHANNELS 3  Xrotation Yrotation Zrotation
						End Site
						{
							OFFSET	1	0	0
						}
					}
				}
			}
		}
	}
	JOINT right_hip
	{
		OFFSET	82.8	-127.5	0.300001
		CHANNELS 3  Xrotation Yrotation Zrotation
		JOINT right_knee
		{
			OFFSET	28.2	-396.7	2.2
			CHANNELS 3  Xrotation Yrotation Zrotation
			JOINT right_ankle
			{
				OFFSET	11.7	-411.3	35.4
				CHANNELS 3  Xrotation Yrotation Zrotation
				JOINT right_toes
				{
					OFFSET	0	-60	-88.6
					CHANNELS 3  Xrotation Yrotation Zrotation
					JOINT right_foot_ee
					{
						OFFSET	22.5	-16.5	-42.2
						CHANNELS 3  Xrotation Yrotation Zrotation
						End Site
						{
							OFFSET	1	0	0
						}
					}
				}
			}
		}
	}
}
MOTION
Frames: 12
Frame Time: 0.02
521.519 706.443 -546.361 148.321 -87.8804 158.328 -1.51258 -1.25529 -4.60352 -1.5013 -0.960138 -4.67386 -1.41049 0.160306 -4.76855 -1.44172 -0.593949 -4.73421 -5.74358 4.07214 3.79604 -5.70554 4.70251 4.58503 -0.0 0.0 -0.0 3.81102 -27.2134 5.15325 3.47655 -27.4931 77.0505 0.512179 -14.2368 0.0639627 15.5628 0.283472 -1.96171 -0.985142 -7.13895 -9.72497 -0.0 0.0 -0.0 -4.54426 -14.7858 5.61367 4.62806 23.1454 -71.3984 1.22928 31.3381 -0.344831 47.6955 0.808815 5.86546 -3.50694 -28.724 7.71545 0.0 0.0 0.0 -10.0426 -16.6573 -13.9332 4.29841 -0.200723 -0.628806 29.057 24.0274 -3.97539 29.3545 -0.0 -0.0 -0.0 0.0 -0.0 5.84571 -2.89098 -16.757 -14.6471 -0.320986 -2.21874 39.34 -8.95867 4.81134 -31.8842 0.0 0.0 0.0 0.0 0.0 
519.833 706.707 -551.657 153.466 -87.0067 163.641 -1.53516 -1.30803 -4.56266 -1.52415 -1.01537 -4.63642 -1.42948 0.0992239 -4.74503 -1.4603 -0.650567 -4.70137 -6.13662 3.79369 3.41944 -6.10619 4.50186 4.16246 -0.0 0.0 -0.0 4.72435 -27.6211 7.09371 1.33755 -27.1307 74.4124 0.534996 -14.8435 0.069691 14.8124 0.282108 -1.86587 -0.996637 -6.67534 -9.60189 -0.0 0.0 -0.0 -4.50718 -14.2761 5.6715 5.25372 23.0192 -71.6076 1.27193 32.2127 -0.367291 47.5728 0.800579 5.85209 -3.47357 -28.988 7.37721 0.0 0.0 0.0 -9.64851 -15.993 -12.7799 4.31855 -0.201774 -0.631715 29.8744 22.955 -4.04638 30.2949 -0.0 -0.0 -0.0 0.0 -0.0 5.38375 -7.99645 -16.1739 -16.053 -0.321756 -2.43444 39.6049 -7.58539 4.82827 -31.1035 0.0 0.0 0.0 0.0 0.0 
522.978 712.709 -553.319 141.166 -87.7083 151.739 -1.68303 -1.2554 -4.53211 -1.67212 -0.964786 -4.6026 -1.58189 0.153162 -4.69993 -1.61222 -0.590203 -4.66532 -6.5358 3.52334 3.29697 -6.5079 4.12448 3.9965 -0.0 0.0 -0.0 5.06783 -27.8796 7.81287 1.12565 -27.3982 73.2455 0.561695 -15.5492 0.0766897 13.8675 0.278606 -1.74524 -1.02718 -6.12088 -9.56905 -0.0 0.0 -0.0 -4.55687 -15.0315 5.57668 4.32063 22.5298 -71.7431 1.2865 32.5077 -0.37509 47.4124 0.789852 5.83458 -3.39801 -28.8537 7.04722 0.0 0.0 0.0 -9.381 -14.7905 -12.5966 4.53747 -0.213269 -0.663326 30.9521 23.9952 -4.19204 30.7255 -0.0 -0.0 -0.0 0.0 -0.0 5.07838 -10.4188 -16.8003 -18.0246 -0.31392 -2.73684 38.9621 -4.42943 4.76714 -30.4406 0.0 0.0 0.0 0.0 0.0 
525.55 712.818 -557.202 143.004 -87.4772 154.026 -1.64359 -1.0964 -4.69971 -1.63165 -0.79547 -4.75976 -1.5526 0.353087 -4.81272 -1.58467 -0.410521 -4.80817 -6.49343 3.89516 2.62715 -6.476 5.29979 3.39573 -0.0 0.0 -0.0 5.20093 -27.9815 8.09146 1.53073 -27.6867 72.6139 0.559982 -15.5041 0.0762313 12.8368 0.272517 -1.61373 -0.980761 -4.64748 -8.60782 -0.0 0.0 -0.0 -4.44233 -14.844 5.43308 3.72768 21.3804 -71.7228 1.23525 31.4615 -0.347941 46.6242 0.737875 5.74811 -3.5845 -28.6378 8.18959 0.0 0.0 0.0 -9.351 -12.5544 -12.627 4.57492 -0.215247 -0.668729 31.6864 26.5313 -4.34088 30.4371 -0.0 -0.0 -0.0 0.0 -0.0 6.0287 -10.6842 -16.374 -20.9063 -0.283765 -3.17791 37.4284 -2.20466 4.63477 -29.9316 0.0 0.0 0.0 0.0 0.0 
524.511 709.323 -564.767 150.356 -86.7776 161.428 -1.55207 -0.873097 -4.61367 -1.54042 -0.578075 -4.65974 -1.48178 0.53554 -4.66481 -1.51207 -0.207064 -4.69083 -6.87773 2.92586 2.02147 -6.86789 3.96742 2.60899 -0.0 0.0 -0.0 5.66695 -27.7677 9.12898 1.85989 -26.7893 71.1779 0.593521 -16.3842 0.0854447 12.0565 0.266334 -1.51425 -0.974376 -3.01346 -7.84779 -0.0 0.0 -0.0 -4.41262 -14.8631 5.38004 3.20015 20.491 -71.9395 1.2862 32.5016 -0.374927 46.547 0.732845 5.7396 -3.26972 -28.2301 6.71273 0.0 0.0 0.0 -9.50202 -12.1982 -12.4592 4.81633 -0.228084 -0.703527 33.8198 25.1755 -4.54011 31.2298 -0.0 -0.0 -0.0 0.0 -0.0 6.7774 -14.1854 -15.416 -24.6033 -0.212667 -3.74068 38.92 1.55719 4.79514 -28.1381 0.0 0.0 0.0 0.0 0.0 
527.27 709.932 -571.469 152.642 -86.2952 163.785 -1.52376 -0.421258 -4.60318 -1.51199 -0.127812 -4.62061 -1.49159 0.966057 -4.52051 -1.52001 0.240799 -4.61611 -8.39758 1.66755 2.2262 -8.38459 1.55628 2.57083 -0.0 0.0 -0.0 6.25357 -28.6437 10.3122 0.943337 -28.7645 68.7328 0.637096 -17.5157 0.0981489 9.81682 0.241072 -1.22931 -0.922227 -0.608693 -6.43811 -0.0 0.0 -0.0 -4.46464 -15.378 5.3454 1.88062 18.7005 -71.7851 1.31081 32.9956 -0.38824 46.2965 0.716612 5.71195 -2.99133 -27.084 5.83294 0.0 0.0 0.0 -9.44405 -11.7682 -12.7089 5.24775 -0.251393 -0.765584 37.1867 26.6984 -4.94358 32.5829 -0.0 -0.0 -0.0 0.0 -0.0 6.20018 -26.599 -14.057 -30.3947 -0.0287457 -4.61008 35.8011 10.3093 4.64964 -25.3651 0.0 0.0 0.0 0.0 0.0 
532.894 708.487 -579.933 130.282 -87.1427 141.12 -1.48593 -0.398412 -4.61823 -1.47407 -0.104057 -4.63418 -1.45569 0.989584 -4.52871 -1.4842 0.262743 -4.62791 -8.30102 0.793509 1.14591 -8.29752 0.677565 1.3087 -0.0 0.0 -0.0 6.39098 -28.2346 10.6573 2.00468 -29.9498 68.3285 0.700156 -19.1285 0.117974 7.66795 0.206381 -0.957024 -0.785967 1.71057 -4.508 -0.0 0.0 -0.0 -4.42151 -15.7378 5.19192 0.549663 16.449 -71.6255 1.22179 31.1826 -0.340941 45.6606 0.675956 5.64146 -2.66035 -25.3662 4.91988 0.0 0.0 0.0 -10.3609 -12.7124 -12.2155 5.32904 -0.255838 -0.777257 38.2156 26.6681 -5.04777 33.4905 -0.0 -0.0 -0.0 0.0 -0.0 8.54797 -26.75 -11.8182 -38.2349 0.358309 -5.74959 37.1875 7.60452 4.72451 -21.9391 0.0 0.0 0.0 0.0 0.0 
536.791 707.623 -583.68 127.318 -87.3746 138.014 -1.38453 -0.418705 -4.52381 -1.37316 -0.130298 -4.54124 -1.35347 0.934099 -4.44623 -1.38098 0.220935 -4.53774 -8.46537 0.916344 2.21772 -8.45159 0.160574 2.39463 -0.0 0.0 -0.0 6.6367 -28.5076 11.1638 2.0963 -30.5222 67.7042 0.710889 -19.3999 0.121516 7.29678 0.199356 -0.910131 -1.13178 3.07731 -6.20718 -0.0 0.0 -0.0 -4.2715 -15.7231 4.95352 -0.479486 16.0315 -70.9893 1.21964 31.1381 -0.339832 45.5763 0.670622 5.63208 -2.77986 -26.2058 5.13998 0.0 0.0 0.0 -10.1867 -13.2523 -11.6092 5.80293 -0.282076 -0.845184 38.662 26.403 -5.0836 33.4977 -0.0 -0.0 -0.0 0.0 -0.0 8.79529 -26.3456 -10.5908 -38.0893 0.349704 -5.72893 37.0227 10.2472 4.76429 -22.4967 0.0 0.0 0.0 0.0 0.0 
541.21 701.422 -586.885 124.014 -87.3171 135.076 -1.36528 -0.478679 -4.56108 -1.35373 -0.187787 -4.58223 -1.32907 0.885723 -4.49991 -1.35728 0.164711 -4.58312 -8.50762 -0.219605 1.58107 -8.50049 -1.5168 1.51076 -0.0 0.0 -0.0 6.58014 -28.3859 11.0537 2.07766 -29.9374 66.3105 0.807721 -21.8073 0.155598 7.23526 0.198162 -0.902363 -0.646947 2.25826 -3.34435 -0.0 0.0 -0.0 -3.94185 -16.3617 4.28291 -2.61387 15.7621 -70.5026 1.23185 31.3911 -0.346166 45.3626 0.65717 5.60826 -2.69679 -25.3577 5.1296 0.0 0.0 0.0 -10.6209 -13.5076 -12.0413 6.28044 -0.309084 -0.913413 39.3181 26.9125 -5.16679 33.694 -0.0 -0.0 -0.0 0.0 -0.0 10.1688 -26.7794 -10.7376 -41.9586 0.596053 -6.27027 38.1188 7.66703 4.811 -21.5587 0.0 0.0 0.0 0.0 0.0 
550.077 701.101 -588.462 96.0654 -87.703 107.698 -1.25766 -0.617202 -4.67544 -1.24556 -0.318777 -4.70515 -1.20921 0.776941 -4.65162 -1.23939 0.0334047 -4.7158 -8.23421 0.120184 1.60898 -8.22674 -0.907857 1.6179 -0.0 0.0 -0.0 6.6277 -28.7769 11.1141 2.47654 -30.3236 65.8854 0.855642 -22.9699 0.173852 7.62417 0.205568 -0.951491 -0.531838 2.86001 -2.32066 -0.0 0.0 -0.0 -4.07573 -17.326 4.27952 -4.70526 15.0555 -70.3403 1.24465 31.6551 -0.35286 45.3887 0.658812 5.61118 -2.70573 -24.9984 5.37199 0.0 0.0 0.0 -11.5731 -13.4532 -12.8288 6.27427 -0.308731 -0.912533 39.2731 26.707 -5.15502 33.7916 -0.0 -0.0 -0.0 0.0 -0.0 10.2949 -26.6785 -11.1252 -44.964 0.812384 -6.67876 38.5142 9.00166 4.87354 -21.2413 0.0 0.0 0.0 0.0 0.0 
556.741 702.138 -593.876 89.6128 -87.6507 101.069 -1.19146 -0.773481 -4.75911 -1.17899 -0.469437 -4.79856 -1.12892 0.644797 -4.77821 -1.16075 -0.117015 -4.82 -8.44853 0.130867 3.05397 -8.42174 -1.89494 3.04497 -0.0 0.0 -0.0 6.77 -28.7483 11.4282 3.18644 -30.163 65.626 0.904562 -24.1365 0.193401 7.4619 0.202519 -0.930986 -0.866954 3.50126 -4.26135 -0.0 0.0 -0.0 -4.1802 -17.5826 4.38448 -6.45084 15.883 -69.5352 1.28429 32.4629 -0.373899 44.8176 0.623267 5.54732 -2.80122 -25.6985 5.53372 0.0 0.0 0.0 -12.2673 -13.7662 -11.7473 6.05374 -0.296191 -0.881049 42.0299 24.91 -5.35549 33.6054 -0.0 -0.0 -0.0 0.0 -0.0 10.7929 -26.1898 -10.3707 -46.099 0.899642 -6.83005 39.0887 9.08615 4.9266 -20.8436 0.0 0.0 0.0 0.0 0.0 
562.164 703.87 -600.519 74.6064 -87.6181 86.4255 -1.12243 -0.961589 -4.86392 -1.10951 -0.650521 -4.91508 -1.04224 0.48725 -4.9339 -1.07607 -0.297098 -4.94895 -8.30368 -0.454045 2.79692 -8.28118 -2.81403 2.66464 -0.0 0.0 -0.0 6.83582 -29.0378 11.5394 3.43489 -30.179 65.068 0.975956 -25.8014 0.223542 6.70284 0.187482 -0.835191 -0.546822 4.21005 -1.83871 -0.0 0.0 -0.0 -4.3093 -17.9961 4.48975 -8.57545 14.3763 -69.3118 1.36099 33.9858 -0.41593 44.324 0.593066 5.49185 -2.88922 -25.907 5.91392 0.0 0.0 0.0 -11.9196 -14.3984 -11.9267 5.479 -0.26408 -0.798775 41.361 25.4746 -5.31294 34.2973 -0.0 -0.0 -0.0 0.0 -0.0 10.7153 -26.2355 -11.2624 -47.1681 0.984572 -6.97097 39.2027 9.52075 4.9462 -20.2154 0.0 0.0 0.0 0.0 0.0 
